<?xml version="1.0" encoding="UTF-8"?>
<svg width="192" height="192" viewBox="0 0 192 192" fill="none" xmlns="http://www.w3.org/2000/svg">
  <rect width="192" height="192" fill="#4CAF50"/>
  <path d="M96 48C68.4 48 46 70.4 46 98C46 125.6 68.4 148 96 148C123.6 148 146 125.6 146 98C146 70.4 123.6 48 96 48ZM96 136C75.2 136 58 118.8 58 98C58 77.2 75.2 60 96 60C116.8 60 134 77.2 134 98C134 118.8 116.8 136 96 136Z" fill="white"/>
  <path d="M96 72C83.9 72 74 81.9 74 94C74 106.1 83.9 116 96 116C108.1 116 118 106.1 118 94C118 81.9 108.1 72 96 72ZM96 108C89.4 108 84 102.6 84 96C84 89.4 89.4 84 96 84C102.6 84 108 89.4 108 96C108 102.6 102.6 108 96 108Z" fill="white"/>
</svg>
